<svg width="55" height="24" viewBox="0 0 55 24" fill="none" xmlns="http://www.w3.org/2000/svg">
<path d="M7.95066 6.3429V16.9879L5.52232 17.7352V7.89176L3.38208 8.55071V18.4281L0.953735 19.1414V8.48277L7.95066 6.3429Z" fill="white"/>
<path d="M16.0178 6.3429V13.6185L11.4629 15.0247V18.3942L9.03455 19.1414V8.48277L16.0178 6.3429ZM13.6031 7.87817L11.4629 8.53712V14.2435L13.6031 13.5981V7.87817Z" fill="white"/>
<path d="M24.0642 6.3429V16.9879L21.6496 17.7352V14.5288L19.5094 16.6822V18.4145L17.0947 19.1482V8.50315L19.5094 7.76948V15.5953L21.6496 13.4351V7.12412L24.0642 6.3429Z" fill="white"/>
<path d="M32.2548 16.9336L25.1412 19.1414V8.50318L31.4042 6.58069V11.4854L32.2479 11.2341V16.9336H32.2548ZM27.5902 12.6742L28.921 12.2667V8.14993L27.5902 8.57791V12.6742ZM29.8059 12.7761L27.5902 13.4691V17.5518L29.8059 16.8929V12.7761Z" fill="white"/>
<path d="M40.3356 6.3429V7.91214L37.9072 8.67978V7.87817L35.767 8.53712V12.7965L38.6275 11.9202V12.6878L35.767 13.5981V17.6265L37.9072 16.9676V16.166L40.3356 15.3983V17.0015L33.3318 19.1414V8.48277L40.3356 6.3429Z" fill="white"/>
<path d="M48.8142 6.22058V7.89852L46.7975 8.5235V17.4906L44.2594 18.2718V8.48274L43.7586 8.64578V9.50173L41.4194 10.1946V8.51671L48.8142 6.22058Z" fill="white"/>
<path d="M54 0L54 24" stroke="#FF0094" stroke-miterlimit="10"/>
</svg>
