<svg width="107" height="61" viewBox="0 0 107 61" fill="none" xmlns="http://www.w3.org/2000/svg">
<g clip-path="url(#clip0)">
<path d="M7.92 28.86L5.51 31.39L5.43 31.47V9.23L0 10.92V34.93L6.31 33L13.35 25.68V6.78L7.92 8.51V28.86Z" fill="white"/>
<path d="M15.05 30.23L28.4 26.09V22.51L22.97 24.2V25.97L20.48 26.77V6.31L22.97 5.58V7.35L28.4 5.66V2.08L15.05 6.23V30.23Z" fill="white"/>
<path d="M43.4101 -2.61L30.1001 1.53V25.54L35.5301 23.89V14.64L37.9801 15.93V23.13L43.4101 21.44V16.9L35.8501 12.92L43.4101 10.59V-2.61ZM37.9801 10.5L35.5301 11.26V1.65L37.9801 0.889999V10.5Z" fill="white"/>
<path d="M0 60.89L5.43 59.2V51.6L13.31 49.15V32.74L0 36.85V60.89ZM5.43 36.97L7.92 36.17V49.08L5.43 49.84V36.97Z" fill="white"/>
<path d="M15.05 35.79L19.12 34.58V54.93L24.79 53.16V32.73L28.4 31.6V27.82L15.05 32.01V35.79Z" fill="white"/>
<path d="M30.1001 51.27L35.5301 49.62V40.37L37.9801 41.66V48.86L43.4101 47.17V42.63L35.8501 38.65L43.4101 36.32V23.12L30.1001 27.26V51.27ZM35.5301 27.38L37.9801 26.62V36.23L35.5301 36.99V27.38Z" fill="white"/>
<path d="M46.72 23.95L63.07 18.94V37.05L58.06 38.72V29.54L46.71 33.04V45.89L74.41 37.3V-12.52L46.71 -3.84V23.95H46.72ZM58.07 -3.67L63.08 -5.34V15.35L58.07 16.85V-3.67Z" stroke="white"/>
<path d="M105.53 -22.32L94.2699 -18.73V-0.290009L89.1799 4.96999V-17.23L77.9199 -13.72V36.09L89.1799 32.59V10.06L91.1799 7.96999L94.2699 10.31V30.92L105.53 27.5V14.23L93.7699 5.21999L105.53 -6.96001V-22.32Z" stroke="white"/>
</g>
<defs>
<clipPath id="clip0">
<rect width="106.03" height="83.89" fill="white" transform="translate(0 -23)"/>
</clipPath>
</defs>
</svg>
