<?xml version="1.0" encoding="UTF-8"?>
<svg width="203px" height="142px" viewBox="0 0 203 142" version="1.1" xmlns="http://www.w3.org/2000/svg" xmlns:xlink="http://www.w3.org/1999/xlink">
    <title>logo</title>
    <g id="Page-1" stroke="none" stroke-width="1" fill="none" fill-rule="evenodd">
        <g id="logo" transform="translate(0.000000, 0.390914)" fill="#FFFFFF" fill-rule="nonzero">
            <polygon id="Path" transform="translate(19.608000, 106.409086) rotate(-8.000000) translate(-19.608000, -106.409086) " points="5 137.209086 18.816 132.985086 34.216 116.969086 34.216 75.6090865 22.336 79.3930865 22.336 123.921086 17.056 129.465086 16.88 129.641086 16.88 80.9770865 5 84.6730865"></polygon>
            <polygon id="Path" transform="translate(51.608000, 76.409086) rotate(-8.000000) translate(-51.608000, -76.409086) " points="37 107.209086 66.216 98.1450865 66.216 90.3130865 54.336 94.0090865 54.336 97.8810865 48.88 99.6410865 48.88 54.8490865 54.336 53.2650865 54.336 57.1370865 66.216 53.4410865 66.216 45.6090865 37 54.6730865"></polygon>
            <path d="M93.8633439,43.6090865 L99.3708547,71.9427735 L84.1047037,80.1097427 L102.007072,85.5049347 L103.904476,95.2662354 L92.9479755,101.16114 L89.9423523,85.6985489 L84.1356594,83.9585495 L87.9976335,103.826684 L77.0243414,109.635205 L67,58.0644397 L93.8633439,43.6090865 Z M83.6624466,53.3912351 L78.7121045,56.0567784 L82.7251993,76.7023613 L87.6755414,74.036818 L83.6624466,53.3912351 Z" id="Combined-Shape" transform="translate(85.452238, 76.622146) rotate(3.000000) translate(-85.452238, -76.622146) "></path>
            <path d="M123.880135,18.6090865 L130.730941,53.8534289 L114.824098,62.4138772 L117.997633,78.7403005 L107.041133,84.6352054 L97,32.9780565 L123.880135,18.6090865 Z M113.732039,28.2016775 L108.712105,30.9703952 L114.085286,58.6130167 L119.122011,55.9306822 L113.732039,28.2016775 Z" id="Combined-Shape" transform="translate(113.865471, 51.622146) rotate(3.000000) translate(-113.865471, -51.622146) "></path>
            <polygon id="Path" transform="translate(148.385974, 36.476629) rotate(-8.000000) translate(-148.385974, -36.476629) " points="144.337974 65.7366288 156.745974 61.8646288 156.745974 17.6886288 163.873974 15.4886288 163.873974 7.21662883 132.897974 16.8966288 132.897974 25.1686288 144.337974 21.7366288"></polygon>
            <path d="M190.937039,1 L196.444549,29.333687 L181.178398,37.5006562 L199.080766,42.8958482 L200.978171,52.6571489 L190.02167,58.5520538 L187.016047,43.0894624 L181.209354,41.349463 L185.071328,61.2175972 L174.098036,67.0261189 L164.073695,15.4553532 L190.937039,1 Z M180.736141,10.7821486 L175.785799,13.4476919 L179.798894,34.0932748 L184.749236,31.4277315 L180.736141,10.7821486 Z" id="Combined-Shape" transform="translate(182.525933, 34.013059) rotate(3.000000) translate(-182.525933, -34.013059) "></path>
            <path d="M148.68202,73.5680796 L158.706362,125.138845 L131.756635,139.61099 L129.170791,126.307978 L140.213675,120.396282 L142.060706,129.898433 L146.907874,127.163298 L143.264186,108.418145 L127.340551,116.89221 L121.749085,88.1266072 L148.68202,73.5680796 Z M138.377949,83.2806362 L133.530781,86.0157715 L137.661414,107.266037 L142.542164,104.703668 L138.377949,83.2806362 Z" id="Combined-Shape" transform="translate(140.227723, 106.589535) rotate(3.000000) translate(-140.227723, -106.589535) "></path>
            <polygon id="Path" transform="translate(174.335906, 101.794325) rotate(-8.000000) translate(-174.335906, -101.794325) " points="159.771906 132.594325 171.651906 128.898325 171.651906 105.138325 173.763906 102.938325 177.019906 105.402325 177.019906 127.138325 188.899906 123.530325 188.899906 109.538325 176.491906 100.034325 188.899906 87.1863245 188.899906 70.9943245 177.019906 74.7783245 177.019906 94.2263245 171.651906 99.7703245 171.651906 76.3623245 159.771906 80.0583245"></polygon>
        </g>
    </g>
</svg>